<svg width="188" height="188" viewBox="0 0 188 188" fill="none" xmlns="http://www.w3.org/2000/svg">
<path d="M138 188H50C22.4 188 0 165.6 0 138V50C0 22.4 22.4 0 50 0H138C165.6 0 188 22.4 188 50V138C188 165.6 165.6 188 138 188Z" fill="#3A65FF"/>
<path d="M119 101.6C119 101.6 130.1 84.3 115.7 66.3C101.4 48.3 78.3 55.3 71.5 61.9C64.7 68.5 58.8 75.1 59.9 90.2C61 105.3 76.8 120.3 95.2 118.1C95.2 118.1 103.6 115.9 105.8 124C105.8 124 108.8 134.2 96.6 135C96.6 135 71.3 137.9 54.8 118.5C38.2 99 41.9 78.1 47 66.7C52.2 55.3 63.9 41 86 38C108 35.1 123.8 49.1 129.3 56.4C134.8 63.7 139.5 70.5 139.9 86.4C139.9 86.4 140.3 96.8 135.2 107.5C135.2 107.5 133.4 114.1 124.9 113C124.9 113 116.8 110.4 119 101.6Z" fill="white"/>
<path d="M117.8 148.4C117.8 153.6 113.6 157.8 108.4 157.8C103.2 157.8 99 153.6 99 148.4C99 143.2 103.2 139 108.4 139C113.6 139 117.8 143.2 117.8 148.4Z" fill="white"/>
</svg>
